<?xml version="1.0" standalone="no"?>
<!DOCTYPE svg PUBLIC "-//W3C//DTD SVG 20010904//EN"
 "http://www.w3.org/TR/2001/REC-SVG-20010904/DTD/svg10.dtd">
<svg version="1.0" xmlns="http://www.w3.org/2000/svg"
 width="500.000000pt" height="500.000000pt" viewBox="0 0 500.000000 500.000000"
 preserveAspectRatio="xMidYMid meet">

<g transform="translate(0.000000,500.000000) scale(0.100000,-0.100000)"
fill="#019BF0" stroke="none">
<path d="M3725 4777 c-22 -8 -56 -22 -75 -33 -19 -10 -613 -250 -1320 -534
l-1284 -515 -23 -45 c-46 -92 -58 -163 -57 -345 0 -234 32 -349 112 -398 20
-13 404 -171 852 -350 l815 -326 -732 -1 -733 0 0 -752 0 -753 -122 0 c-105 0
-130 -4 -170 -22 -132 -61 -204 -193 -167 -304 42 -122 164 -197 330 -203 62
-2 83 3 153 31 44 19 650 261 1345 540 1418 568 1322 522 1360 646 64 209 33
583 -55 658 -11 9 -244 106 -518 215 l-500 199 130 5 129 5 3 523 2 522 430 0
431 0 -3 153 -3 152 -894 5 -894 5 647 259 646 258 34 -29 c133 -118 367 -119
499 -3 148 130 104 335 -91 423 -59 26 -215 34 -277 14z m-1695 -1132 l0 -105
430 0 430 0 0 -515 c0 -283 -3 -515 -7 -515 -5 0 -379 148 -833 330 l-825 330
0 134 0 134 385 155 c212 85 393 156 403 156 15 1 17 -10 17 -104z m1320
-1656 l426 -170 0 -136 -1 -135 -1085 -434 c-597 -239 -1088 -434 -1092 -434
-5 0 -8 128 -8 285 l0 285 650 0 650 0 0 150 0 150 -650 0 -650 0 0 185 0 185
655 0 655 0 0 120 c0 85 3 120 12 120 6 0 203 -77 438 -171z"/>
</g>
</svg>
